<?xml version="1.0" encoding="UTF-8"?>
<svg xmlns="http://www.w3.org/2000/svg" xmlns:xlink="http://www.w3.org/1999/xlink" width="200px" height="200px" viewBox="0 0 200 200" version="1.1">
<defs>
<clipPath id="clip1">
  <path d="M 0 0 L 198.34375 0 L 198.34375 198.34375 L 0 198.34375 Z M 0 0 "/>
</clipPath>
<clipPath id="clip2">
  <path d="M 0 41 L 198.34375 41 L 198.34375 188 L 0 188 Z M 0 41 "/>
</clipPath>
</defs>
<g id="surface1">
<path style="fill-rule:nonzero;fill:rgb(96.470588%,83.137256%,60.392159%);fill-opacity:1;stroke-width:0.3;stroke-linecap:butt;stroke-linejoin:miter;stroke:rgb(96.470588%,83.137256%,60.392159%);stroke-opacity:1;stroke-miterlimit:10;" d="M -0.000267639 0.000136337 C 0.0759042 -0.0250004 0.152838 -0.0501371 0.22901 -0.0737504 " transform="matrix(5.128205,0,0,-5.128205,114.21231,102.371793)"/>
<path style=" stroke:none;fill-rule:nonzero;fill:rgb(96.470588%,83.137256%,60.392159%);fill-opacity:1;" d="M 115.960938 101.679688 C 115.710938 102.074219 115.148438 102.566406 114.609375 102.375 C 114.132812 102.210938 113.871094 101.570312 113.875 101.09375 C 113.878906 100.730469 114.039062 100.515625 115.050781 99.394531 C 116.023438 98.3125 116.191406 98.164062 116.304688 98.222656 C 116.46875 98.308594 116.304688 98.734375 116.199219 100.039062 C 116.117188 101.105469 116.1875 101.324219 115.960938 101.679688 "/>
<path style="fill:none;stroke-width:0.3;stroke-linecap:butt;stroke-linejoin:miter;stroke:rgb(96.470588%,83.137256%,60.392159%);stroke-opacity:1;stroke-miterlimit:10;" d="M -0.000217514 -0.000238037 C -0.0489675 -0.0771716 -0.158655 -0.173148 -0.263772 -0.135824 C -0.356702 -0.103832 -0.407737 0.0210901 -0.406975 0.11402 C -0.406214 0.18486 -0.374983 0.226754 -0.177698 0.445367 C 0.01197 0.656364 0.0447239 0.685309 0.0668137 0.673883 C 0.0988059 0.657125 0.0668137 0.574098 0.0462473 0.319684 C 0.0302512 0.111735 0.0439622 0.0690784 -0.000217514 -0.000238037 Z M -0.000217514 -0.000238037 " transform="matrix(5.128205,0,0,-5.128205,115.962053,101.678467)"/>
<path style=" stroke:none;fill-rule:nonzero;fill:rgb(96.470588%,83.137256%,60.392159%);fill-opacity:1;" d="M 114.023438 104.757812 C 113.535156 104.820312 112.734375 104.71875 112.476562 104.21875 C 112.246094 103.78125 112.539062 103.207031 112.910156 102.914062 C 113.1875 102.699219 113.46875 102.675781 115.078125 102.710938 C 116.632812 102.742188 116.867188 102.773438 116.910156 102.886719 C 116.964844 103.054688 116.519531 103.199219 115.445312 103.929688 C 114.574219 104.519531 114.457031 104.703125 114.023438 104.757812 "/>
<path style="fill:none;stroke-width:0.3;stroke-linecap:butt;stroke-linejoin:miter;stroke:rgb(96.470588%,83.137256%,60.392159%);stroke-opacity:1;stroke-miterlimit:10;" d="M 0.000370789 0.000226059 C -0.0948441 -0.0119614 -0.250996 0.00784325 -0.30127 0.105343 C -0.346211 0.190656 -0.289082 0.302628 -0.216719 0.359757 C -0.162637 0.401652 -0.107793 0.406222 0.206035 0.399367 C 0.509199 0.393273 0.554902 0.387179 0.563281 0.365089 C 0.573945 0.332335 0.487109 0.304152 0.277636 0.16171 C 0.107773 0.0466909 0.0849216 0.0108901 0.000370789 0.000226059 Z M 0.000370789 0.000226059 " transform="matrix(5.128205,0,0,-5.128205,114.021536,104.758972)"/>
<path style=" stroke:none;fill-rule:nonzero;fill:rgb(96.470588%,83.137256%,60.392159%);fill-opacity:1;" d="M 113.113281 107.296875 C 112.617188 107.277344 111.835938 107.035156 111.671875 106.515625 C 111.523438 106.046875 111.921875 105.535156 112.34375 105.320312 C 112.667969 105.15625 112.949219 105.1875 114.554688 105.5 C 116.097656 105.796875 116.328125 105.867188 116.347656 105.984375 C 116.375 106.15625 115.898438 106.222656 114.691406 106.738281 C 113.707031 107.160156 113.558594 107.320312 113.113281 107.296875 "/>
<path style="fill:none;stroke-width:0.3;stroke-linecap:butt;stroke-linejoin:miter;stroke:rgb(96.470588%,83.137256%,60.392159%);stroke-opacity:1;stroke-miterlimit:10;" d="M -0.0000104523 0.000309982 C -0.0967487 0.00411858 -0.249092 0.0513451 -0.281085 0.152654 C -0.31003 0.24406 -0.232335 0.343845 -0.150069 0.38574 C -0.0868464 0.417732 -0.0320026 0.411638 0.281064 0.350701 C 0.581943 0.29281 0.626884 0.279099 0.630693 0.256247 C 0.636025 0.222732 0.543095 0.209783 0.307724 0.109236 C 0.115771 0.0269701 0.0868255 -0.00426033 -0.0000104523 0.000309982 Z M -0.0000104523 0.000309982 " transform="matrix(5.128205,0,0,-5.128205,113.113335,107.298465)"/>
<path style=" stroke:none;fill-rule:nonzero;fill:rgb(96.470588%,83.137256%,60.392159%);fill-opacity:1;" d="M 111.875 109.683594 C 111.375 109.636719 110.609375 109.359375 110.46875 108.832031 C 110.347656 108.359375 110.773438 107.875 111.207031 107.679688 C 111.542969 107.53125 111.824219 107.578125 113.414062 107.960938 C 114.945312 108.335938 115.175781 108.414062 115.1875 108.53125 C 115.203125 108.703125 114.726562 108.746094 113.488281 109.203125 C 112.480469 109.578125 112.320312 109.726562 111.875 109.683594 "/>
<path style="fill:none;stroke-width:0.3;stroke-linecap:butt;stroke-linejoin:miter;stroke:rgb(96.470588%,83.137256%,60.392159%);stroke-opacity:1;stroke-miterlimit:10;" d="M 0.000124741 0.00010025 C -0.0973753 0.00924088 -0.246672 0.0633229 -0.274094 0.166155 C -0.297707 0.258323 -0.21468 0.352776 -0.130129 0.390862 C -0.0646214 0.419807 -0.0097776 0.410667 0.300242 0.336018 C 0.598836 0.262893 0.643777 0.247659 0.646062 0.224807 C 0.649109 0.191292 0.556179 0.182913 0.314715 0.0937917 C 0.118191 0.0206667 0.0869607 -0.00827866 0.000124741 0.00010025 Z M 0.000124741 0.00010025 " transform="matrix(5.128205,0,0,-5.128205,111.87436,109.684108)"/>
<path style=" stroke:none;fill-rule:nonzero;fill:rgb(96.470588%,83.137256%,60.392159%);fill-opacity:1;" d="M 110.308594 111.96875 C 109.816406 111.84375 109.09375 111.460938 109.046875 110.925781 C 109 110.445312 109.507812 110.035156 109.972656 109.914062 C 110.332031 109.820312 110.605469 109.90625 112.132812 110.527344 C 113.605469 111.121094 113.820312 111.234375 113.816406 111.351562 C 113.800781 111.523438 113.316406 111.492188 112.003906 111.75 C 110.933594 111.953125 110.75 112.078125 110.308594 111.96875 "/>
<path style="fill:none;stroke-width:0.3;stroke-linecap:butt;stroke-linejoin:miter;stroke:rgb(96.470588%,83.137256%,60.392159%);stroke-opacity:1;stroke-miterlimit:10;" d="M 0.000175552 -0.00000579834 C -0.095801 0.0243692 -0.236719 0.0990176 -0.24586 0.203373 C -0.255 0.297065 -0.155977 0.377045 -0.0653323 0.400658 C 0.00474586 0.41894 0.0580662 0.402182 0.355898 0.281068 C 0.643066 0.165287 0.684961 0.143197 0.684199 0.120346 C 0.681152 0.0868301 0.586699 0.0929239 0.330761 0.0426505 C 0.122051 0.00304108 0.0862498 -0.0213339 0.000175552 -0.00000579834 Z M 0.000175552 -0.00000579834 " transform="matrix(5.128205,0,0,-5.128205,110.307693,111.96872)"/>
<path style=" stroke:none;fill-rule:nonzero;fill:rgb(96.470588%,83.137256%,60.392159%);fill-opacity:1;" d="M 108.730469 114.128906 C 108.238281 114.007812 107.511719 113.625 107.46875 113.089844 C 107.421875 112.609375 107.929688 112.199219 108.394531 112.074219 C 108.753906 111.980469 109.027344 112.070312 110.554688 112.691406 C 112.027344 113.285156 112.242188 113.398438 112.238281 113.515625 C 112.222656 113.683594 111.738281 113.652344 110.425781 113.910156 C 109.355469 114.117188 109.167969 114.238281 108.730469 114.128906 "/>
<path style="fill:none;stroke-width:0.3;stroke-linecap:butt;stroke-linejoin:miter;stroke:rgb(96.470588%,83.137256%,60.392159%);stroke-opacity:1;stroke-miterlimit:10;" d="M 0.000340652 0.000364075 C -0.0956359 0.0239774 -0.237316 0.0986258 -0.245695 0.202981 C -0.254835 0.296673 -0.155812 0.376653 -0.0651672 0.401028 C 0.00491096 0.419309 0.0582313 0.40179 0.356063 0.280677 C 0.643231 0.164895 0.685126 0.142805 0.684364 0.119954 C 0.681317 0.0872 0.586864 0.0932938 0.330927 0.0430203 C 0.122216 0.00264923 0.0856532 -0.0209641 0.000340652 0.000364075 Z M 0.000340652 0.000364075 " transform="matrix(5.128205,0,0,-5.128205,108.728722,114.130773)"/>
<path style=" stroke:none;fill-rule:nonzero;fill:rgb(96.470588%,83.137256%,60.392159%);fill-opacity:1;" d="M 111.984375 103.046875 C 112.125 103.414062 112.511719 103.890625 113 103.773438 C 113.4375 103.671875 113.78125 103.136719 113.867188 102.71875 C 113.933594 102.398438 113.839844 102.199219 113.191406 101.128906 C 112.570312 100.097656 112.453125 99.953125 112.347656 99.992188 C 112.191406 100.054688 112.25 100.441406 112.09375 101.589844 C 111.964844 102.527344 111.863281 102.71875 111.984375 103.046875 "/>
<path style="fill:none;stroke-width:0.3;stroke-linecap:butt;stroke-linejoin:miter;stroke:rgb(96.470588%,83.137256%,60.392159%);stroke-opacity:1;stroke-miterlimit:10;" d="M -0.00014595 -0.000341034 C 0.0272759 -0.0719426 0.102686 -0.164872 0.197901 -0.142021 C 0.283213 -0.122216 0.350245 -0.0178606 0.367002 0.0636433 C 0.379952 0.126104 0.36167 0.164952 0.235225 0.373663 C 0.114112 0.574757 0.0912603 0.60294 0.0706939 0.595323 C 0.0402251 0.583136 0.0516509 0.507725 0.0211822 0.28378 C -0.00395454 0.100968 -0.0237592 0.0636433 -0.00014595 -0.000341034 Z M -0.00014595 -0.000341034 " transform="matrix(5.128205,0,0,-5.128205,111.985123,103.045126)"/>
<path style=" stroke:none;fill-rule:nonzero;fill:rgb(96.470588%,83.137256%,60.392159%);fill-opacity:1;" d="M 110.332031 105.152344 C 110.542969 105.472656 111.03125 105.859375 111.507812 105.664062 C 111.929688 105.488281 112.179688 104.921875 112.191406 104.507812 C 112.195312 104.195312 112.0625 104.015625 111.199219 103.121094 C 110.371094 102.25 110.226562 102.136719 110.125 102.191406 C 109.980469 102.273438 110.113281 102.632812 110.167969 103.75 C 110.214844 104.664062 110.144531 104.859375 110.332031 105.152344 "/>
<path style="fill:none;stroke-width:0.3;stroke-linecap:butt;stroke-linejoin:miter;stroke:rgb(96.470588%,83.137256%,60.392159%);stroke-opacity:1;stroke-miterlimit:10;" d="M -0.000253296 -0.000306778 C 0.0408795 -0.0627677 0.136094 -0.138178 0.229024 -0.100092 C 0.31129 -0.0658146 0.36004 0.0446346 0.362325 0.125377 C 0.363087 0.186314 0.337188 0.221353 0.168848 0.395787 C 0.00736389 0.56565 -0.0208197 0.58774 -0.0406244 0.577076 C -0.068808 0.56108 -0.0429095 0.491002 -0.0322455 0.27315 C -0.0231049 0.0949081 -0.0368158 0.0568221 -0.000253296 -0.000306778 Z M -0.000253296 -0.000306778 " transform="matrix(5.128205,0,0,-5.128205,110.33333,105.150771)"/>
<path style=" stroke:none;fill-rule:nonzero;fill:rgb(96.470588%,83.137256%,60.392159%);fill-opacity:1;" d="M 108.929688 107.390625 C 109.15625 107.703125 109.667969 108.054688 110.140625 107.839844 C 110.5625 107.644531 110.78125 107.070312 110.765625 106.660156 C 110.757812 106.351562 110.613281 106.183594 109.695312 105.339844 C 108.8125 104.515625 108.664062 104.410156 108.566406 104.472656 C 108.417969 104.5625 108.570312 104.90625 108.691406 106.015625 C 108.78125 106.914062 108.726562 107.113281 108.929688 107.390625 "/>
<path style="fill:none;stroke-width:0.3;stroke-linecap:butt;stroke-linejoin:miter;stroke:rgb(96.470588%,83.137256%,60.392159%);stroke-opacity:1;stroke-miterlimit:10;" d="M -0.000211792 -0.000271072 C 0.0439679 -0.0612086 0.143753 -0.129763 0.235921 -0.0878687 C 0.318187 -0.0497828 0.360843 0.0621899 0.357796 0.14217 C 0.356273 0.202346 0.328089 0.2351 0.149085 0.399631 C -0.0230634 0.560354 -0.0520087 0.58092 -0.0710516 0.568733 C -0.0999969 0.551213 -0.0702899 0.484182 -0.0466766 0.267854 C -0.0291571 0.0926586 -0.0398212 0.053811 -0.000211792 -0.000271072 Z M -0.000211792 -0.000271072 " transform="matrix(5.128205,0,0,-5.128205,108.930774,107.389235)"/>
<path style=" stroke:none;fill-rule:nonzero;fill:rgb(96.470588%,83.137256%,60.392159%);fill-opacity:1;" d="M 107.734375 109.789062 C 108.015625 110.050781 108.601562 110.3125 109.042969 110.03125 C 109.4375 109.78125 109.566406 109.199219 109.484375 108.804688 C 109.414062 108.515625 109.242188 108.375 108.167969 107.707031 C 107.128906 107.0625 106.960938 106.980469 106.871094 107.058594 C 106.738281 107.164062 106.953125 107.472656 107.257812 108.515625 C 107.503906 109.359375 107.476562 109.554688 107.734375 109.789062 "/>
<path style="fill:none;stroke-width:0.3;stroke-linecap:butt;stroke-linejoin:miter;stroke:rgb(96.470588%,83.137256%,60.392159%);stroke-opacity:1;stroke-miterlimit:10;" d="M 0.000102615 0.000333481 C 0.0549464 -0.0507017 0.169204 -0.101737 0.255278 -0.0468931 C 0.332212 0.00185692 0.357349 0.115353 0.341353 0.192287 C 0.327642 0.248654 0.294126 0.276076 0.0846534 0.40633 C -0.117964 0.532013 -0.150718 0.548009 -0.168237 0.532775 C -0.194136 0.512208 -0.152241 0.452033 -0.0928271 0.248654 C -0.0448388 0.0841225 -0.0501708 0.0460366 0.000102615 0.000333481 Z M 0.000102615 0.000333481 " transform="matrix(5.128205,0,0,-5.128205,107.733849,109.790773)"/>
<path style=" stroke:none;fill-rule:nonzero;fill:rgb(96.470588%,83.137256%,60.392159%);fill-opacity:1;" d="M 106.636719 112.128906 C 106.917969 112.390625 107.503906 112.652344 107.945312 112.371094 C 108.339844 112.117188 108.46875 111.539062 108.386719 111.144531 C 108.320312 110.851562 108.144531 110.714844 107.074219 110.046875 C 106.03125 109.402344 105.863281 109.320312 105.777344 109.394531 C 105.640625 109.503906 105.859375 109.8125 106.160156 110.851562 C 106.40625 111.699219 106.382812 111.894531 106.636719 112.128906 "/>
<path style="fill:none;stroke-width:0.3;stroke-linecap:butt;stroke-linejoin:miter;stroke:rgb(96.470588%,83.137256%,60.392159%);stroke-opacity:1;stroke-miterlimit:10;" d="M -0.000139923 0.000063324 C 0.0547038 -0.0509718 0.168962 -0.102007 0.255036 -0.0471632 C 0.331969 0.00234848 0.357106 0.115083 0.34111 0.192016 C 0.328161 0.249145 0.293884 0.275806 0.0851726 0.406059 C -0.118206 0.531743 -0.15096 0.547739 -0.167718 0.533266 C -0.194378 0.511938 -0.151722 0.451763 -0.0930696 0.249145 C -0.0450813 0.0838524 -0.0496516 0.0457664 -0.000139923 0.000063324 Z M -0.000139923 0.000063324 " transform="matrix(5.128205,0,0,-5.128205,106.637436,112.129231)"/>
<path style="fill-rule:nonzero;fill:rgb(96.470588%,83.137256%,60.392159%);fill-opacity:1;stroke-width:0.3;stroke-linecap:butt;stroke-linejoin:miter;stroke:rgb(96.470588%,83.137256%,60.392159%);stroke-opacity:1;stroke-miterlimit:10;" d="M -0.000326309 0.000339813 C -0.0582169 -0.109348 -0.139721 -0.257883 -0.243315 -0.432316 C -0.375854 -0.657785 -0.558666 -0.966281 -0.826791 -1.324289 C -0.998178 -1.552805 -1.232026 -1.839973 -1.536713 -2.150754 " transform="matrix(5.128205,0,0,-5.128205,114.44308,102.322055)"/>
<path style="fill-rule:nonzero;fill:rgb(96.470588%,83.137256%,60.392159%);fill-opacity:1;stroke-width:0.3;stroke-linecap:butt;stroke-linejoin:miter;stroke:rgb(96.470588%,83.137256%,60.392159%);stroke-opacity:1;stroke-miterlimit:10;" d="M 0.000372467 -0.000173569 C -0.0757994 -0.0253103 -0.152733 -0.0496853 -0.228905 -0.0740603 " transform="matrix(5.128205,0,0,-5.128205,83.388715,102.440516)"/>
<path style=" stroke:none;fill-rule:nonzero;fill:rgb(96.470588%,83.137256%,60.392159%);fill-opacity:1;" d="M 81.640625 101.746094 C 81.890625 102.140625 82.453125 102.632812 82.992188 102.445312 C 83.46875 102.28125 83.730469 101.640625 83.726562 101.164062 C 83.722656 100.796875 83.5625 100.582031 82.550781 99.464844 C 81.578125 98.382812 81.40625 98.234375 81.296875 98.289062 C 81.132812 98.378906 81.296875 98.804688 81.402344 100.105469 C 81.484375 101.171875 81.414062 101.394531 81.640625 101.746094 "/>
<path style="fill:none;stroke-width:0.3;stroke-linecap:butt;stroke-linejoin:miter;stroke:rgb(96.470588%,83.137256%,60.392159%);stroke-opacity:1;stroke-miterlimit:10;" d="M 0.000322342 0.000211868 C 0.0490723 -0.0767217 0.15876 -0.172698 0.263877 -0.136136 C 0.356807 -0.104144 0.407842 0.0207783 0.40708 0.113708 C 0.406318 0.18531 0.375088 0.227204 0.177803 0.445056 C -0.0118652 0.656052 -0.0453808 0.684997 -0.0667089 0.674333 C -0.0987011 0.656813 -0.0667089 0.573786 -0.0461425 0.320134 C -0.0301464 0.112185 -0.0438573 0.0687666 0.000322342 0.000211868 Z M 0.000322342 0.000211868 " transform="matrix(5.128205,0,0,-5.128205,81.638972,101.74718)"/>
<path style=" stroke:none;fill-rule:nonzero;fill:rgb(96.470588%,83.137256%,60.392159%);fill-opacity:1;" d="M 83.578125 104.828125 C 84.066406 104.890625 84.867188 104.785156 85.125 104.289062 C 85.355469 103.847656 85.0625 103.273438 84.691406 102.980469 C 84.414062 102.765625 84.132812 102.746094 82.523438 102.78125 C 80.96875 102.8125 80.734375 102.84375 80.691406 102.957031 C 80.636719 103.125 81.082031 103.269531 82.152344 103.996094 C 83.027344 104.585938 83.144531 104.769531 83.578125 104.828125 "/>
<path style="fill:none;stroke-width:0.3;stroke-linecap:butt;stroke-linejoin:miter;stroke:rgb(96.470588%,83.137256%,60.392159%);stroke-opacity:1;stroke-miterlimit:10;" d="M -0.000265961 -0.000083847 C 0.0949489 -0.0122713 0.251101 0.00829506 0.301375 0.105033 C 0.346316 0.191108 0.289187 0.30308 0.216824 0.360209 C 0.162742 0.402104 0.107898 0.405912 -0.20593 0.399057 C -0.509094 0.392963 -0.554797 0.386869 -0.563176 0.364779 C -0.57384 0.332026 -0.487004 0.303842 -0.278293 0.162162 C -0.107668 0.0471427 -0.0848167 0.0113419 -0.000265961 -0.000083847 Z M -0.000265961 -0.000083847 " transform="matrix(5.128205,0,0,-5.128205,83.579489,104.827695)"/>
<path style=" stroke:none;fill-rule:nonzero;fill:rgb(96.470588%,83.137256%,60.392159%);fill-opacity:1;" d="M 84.488281 107.367188 C 84.984375 107.347656 85.765625 107.105469 85.929688 106.582031 C 86.074219 106.117188 85.675781 105.601562 85.257812 105.386719 C 84.933594 105.222656 84.652344 105.253906 83.046875 105.566406 C 81.503906 105.863281 81.273438 105.9375 81.25 106.054688 C 81.226562 106.222656 81.703125 106.289062 82.90625 106.808594 C 83.894531 107.230469 84.042969 107.386719 84.488281 107.367188 "/>
<path style="fill:none;stroke-width:0.3;stroke-linecap:butt;stroke-linejoin:miter;stroke:rgb(96.470588%,83.137256%,60.392159%);stroke-opacity:1;stroke-miterlimit:10;" d="M 0.00011528 -0.00000183105 C 0.0968536 0.00380676 0.249197 0.0510333 0.281189 0.153104 C 0.309373 0.243748 0.231678 0.344295 0.150174 0.38619 C 0.0869512 0.418182 0.0321075 0.412088 -0.280959 0.351151 C -0.581838 0.29326 -0.626779 0.278787 -0.63135 0.255936 C -0.63592 0.223182 -0.54299 0.210233 -0.308381 0.108924 C -0.115666 0.0266583 -0.0867207 -0.00381042 0.00011528 -0.00000183105 Z M 0.00011528 -0.00000183105 " transform="matrix(5.128205,0,0,-5.128205,84.48769,107.367178)"/>
<path style=" stroke:none;fill-rule:nonzero;fill:rgb(96.470588%,83.137256%,60.392159%);fill-opacity:1;" d="M 85.726562 109.753906 C 86.222656 109.707031 86.992188 109.429688 87.132812 108.902344 C 87.253906 108.429688 86.828125 107.941406 86.394531 107.746094 C 86.058594 107.597656 85.777344 107.644531 84.1875 108.027344 C 82.65625 108.402344 82.425781 108.480469 82.414062 108.597656 C 82.398438 108.773438 82.875 108.8125 84.109375 109.269531 C 85.121094 109.644531 85.28125 109.792969 85.726562 109.753906 "/>
<path style="fill:none;stroke-width:0.3;stroke-linecap:butt;stroke-linejoin:miter;stroke:rgb(96.470588%,83.137256%,60.392159%);stroke-opacity:1;stroke-miterlimit:10;" d="M -0.0000199127 -0.000310745 C 0.0967184 0.00882988 0.246777 0.0629119 0.274199 0.165744 C 0.297812 0.257912 0.214785 0.353127 0.130234 0.391213 C 0.0647262 0.420158 0.00988243 0.411017 -0.300137 0.336369 C -0.598731 0.263244 -0.643672 0.24801 -0.645957 0.225158 C -0.649004 0.190881 -0.556075 0.183263 -0.315371 0.0941424 C -0.118086 0.0210174 -0.0868559 -0.00792793 -0.0000199127 -0.000310745 Z M -0.0000199127 -0.000310745 " transform="matrix(5.128205,0,0,-5.128205,85.726665,109.752313)"/>
<path style=" stroke:none;fill-rule:nonzero;fill:rgb(96.470588%,83.137256%,60.392159%);fill-opacity:1;" d="M 87.292969 112.035156 C 87.785156 111.914062 88.507812 111.527344 88.554688 110.996094 C 88.601562 110.515625 88.09375 110.105469 87.625 109.980469 C 87.269531 109.886719 86.996094 109.976562 85.46875 110.597656 C 83.996094 111.191406 83.78125 111.304688 83.785156 111.421875 C 83.800781 111.589844 84.28125 111.558594 85.597656 111.816406 C 86.667969 112.023438 86.851562 112.144531 87.292969 112.035156 "/>
<path style="fill:none;stroke-width:0.3;stroke-linecap:butt;stroke-linejoin:miter;stroke:rgb(96.470588%,83.137256%,60.392159%);stroke-opacity:1;stroke-miterlimit:10;" d="M -0.0000707245 0.000344925 C 0.0959058 0.0239582 0.236824 0.0993684 0.245964 0.202962 C 0.255105 0.296654 0.156082 0.376634 0.0646754 0.401009 C -0.00464104 0.41929 -0.0579613 0.401771 -0.355793 0.280657 C -0.642961 0.164876 -0.684856 0.142786 -0.684094 0.119935 C -0.681047 0.0871809 -0.587356 0.0932746 -0.330657 0.0430012 C -0.121946 0.00263008 -0.0861449 -0.0209832 -0.0000707245 0.000344925 Z M -0.0000707245 0.000344925 " transform="matrix(5.128205,0,0,-5.128205,87.293331,112.036925)"/>
<path style=" stroke:none;fill-rule:nonzero;fill:rgb(96.470588%,83.137256%,60.392159%);fill-opacity:1;" d="M 88.871094 114.199219 C 89.363281 114.078125 90.085938 113.691406 90.132812 113.160156 C 90.179688 112.675781 89.671875 112.265625 89.207031 112.144531 C 88.847656 112.050781 88.574219 112.136719 87.046875 112.757812 C 85.574219 113.351562 85.359375 113.464844 85.363281 113.585938 C 85.378906 113.753906 85.863281 113.722656 87.175781 113.980469 C 88.246094 114.183594 88.429688 114.308594 88.871094 114.199219 "/>
<path style="fill:none;stroke-width:0.3;stroke-linecap:butt;stroke-linejoin:miter;stroke:rgb(96.470588%,83.137256%,60.392159%);stroke-opacity:1;stroke-miterlimit:10;" d="M -0.000235825 0.0000522614 C 0.0957407 0.0236655 0.236659 0.0990757 0.245799 0.202669 C 0.25494 0.297123 0.155917 0.377103 0.065272 0.400716 C -0.00480614 0.418998 -0.0581264 0.40224 -0.355958 0.281126 C -0.643126 0.165345 -0.685021 0.143255 -0.684259 0.119642 C -0.681212 0.0868882 -0.586759 0.0929819 -0.330822 0.0427085 C -0.122111 0.00309914 -0.08631 -0.0212759 -0.000235825 0.0000522614 Z M -0.000235825 0.0000522614 " transform="matrix(5.128205,0,0,-5.128205,88.872303,114.199487)"/>
<path style=" stroke:none;fill-rule:nonzero;fill:rgb(96.470588%,83.137256%,60.392159%);fill-opacity:1;" d="M 85.617188 103.113281 C 85.476562 103.484375 85.085938 103.960938 84.601562 103.84375 C 84.164062 103.738281 83.820312 103.207031 83.734375 102.785156 C 83.667969 102.46875 83.757812 102.269531 84.410156 101.195312 C 85.03125 100.164062 85.148438 100.023438 85.25 100.0625 C 85.410156 100.125 85.347656 100.507812 85.507812 101.65625 C 85.636719 102.597656 85.738281 102.785156 85.617188 103.113281 "/>
<path style="fill:none;stroke-width:0.3;stroke-linecap:butt;stroke-linejoin:miter;stroke:rgb(96.470588%,83.137256%,60.392159%);stroke-opacity:1;stroke-miterlimit:10;" d="M 0.000250778 0.000110779 C -0.0271711 -0.0722525 -0.103343 -0.165182 -0.197796 -0.142331 C -0.283109 -0.121764 -0.35014 -0.0181705 -0.366898 0.0640952 C -0.379847 0.125794 -0.362327 0.164642 -0.23512 0.374115 C -0.114007 0.575208 -0.0911555 0.60263 -0.0713508 0.595013 C -0.0401203 0.582826 -0.0523078 0.508177 -0.0210773 0.284232 C 0.00405937 0.100658 0.0238641 0.0640952 0.000250778 0.000110779 Z M 0.000250778 0.000110779 " transform="matrix(5.128205,0,0,-5.128205,85.615901,103.113849)"/>
<path style=" stroke:none;fill-rule:nonzero;fill:rgb(96.470588%,83.137256%,60.392159%);fill-opacity:1;" d="M 87.269531 105.21875 C 87.058594 105.542969 86.570312 105.933594 86.09375 105.730469 C 85.671875 105.558594 85.421875 104.988281 85.410156 104.578125 C 85.40625 104.265625 85.539062 104.089844 86.402344 103.1875 C 87.230469 102.316406 87.375 102.203125 87.476562 102.261719 C 87.621094 102.34375 87.488281 102.703125 87.433594 103.820312 C 87.386719 104.730469 87.457031 104.925781 87.269531 105.21875 "/>
<path style="fill:none;stroke-width:0.3;stroke-linecap:butt;stroke-linejoin:miter;stroke:rgb(96.470588%,83.137256%,60.392159%);stroke-opacity:1;stroke-miterlimit:10;" d="M 0.000358124 0.000143127 C -0.0407747 -0.0630795 -0.13599 -0.139251 -0.228919 -0.099642 C -0.311185 -0.0661264 -0.359935 0.0450845 -0.36222 0.125065 C -0.362982 0.186003 -0.337083 0.22028 -0.168743 0.396237 C -0.00725906 0.5661 0.0209245 0.58819 0.0407292 0.576764 C 0.0689128 0.560768 0.0430144 0.49069 0.0323503 0.272838 C 0.0232097 0.095358 0.0369206 0.057272 0.000358124 0.000143127 Z M 0.000358124 0.000143127 " transform="matrix(5.128205,0,0,-5.128205,87.267695,105.219484)"/>
<path style=" stroke:none;fill-rule:nonzero;fill:rgb(96.470588%,83.137256%,60.392159%);fill-opacity:1;" d="M 88.671875 107.457031 C 88.445312 107.769531 87.933594 108.125 87.460938 107.910156 C 87.039062 107.714844 86.820312 107.140625 86.835938 106.730469 C 86.84375 106.421875 86.988281 106.253906 87.90625 105.40625 C 88.789062 104.585938 88.9375 104.476562 89.035156 104.539062 C 89.183594 104.632812 89.027344 104.976562 88.910156 106.082031 C 88.820312 106.980469 88.875 107.179688 88.671875 107.457031 "/>
<path style="fill:none;stroke-width:0.3;stroke-linecap:butt;stroke-linejoin:miter;stroke:rgb(96.470588%,83.137256%,60.392159%);stroke-opacity:1;stroke-miterlimit:10;" d="M 0.000314713 0.000178833 C -0.043865 -0.0607587 -0.14365 -0.130075 -0.235818 -0.0881805 C -0.318084 -0.0500946 -0.36074 0.0618781 -0.357693 0.141859 C -0.35617 0.202034 -0.327986 0.234788 -0.148982 0.400081 C 0.0231663 0.560042 0.0521116 0.58137 0.0711546 0.569183 C 0.1001 0.550901 0.0696311 0.48387 0.0467796 0.268304 C 0.02926 0.0931085 0.0399241 0.0542609 0.000314713 0.000178833 Z M 0.000314713 0.000178833 " transform="matrix(5.128205,0,0,-5.128205,88.670261,107.457948)"/>
<path style=" stroke:none;fill-rule:nonzero;fill:rgb(96.470588%,83.137256%,60.392159%);fill-opacity:1;" d="M 89.867188 109.859375 C 89.585938 110.121094 89 110.382812 88.558594 110.101562 C 88.164062 109.847656 88.035156 109.269531 88.117188 108.875 C 88.1875 108.582031 88.359375 108.445312 89.433594 107.777344 C 90.472656 107.132812 90.640625 107.050781 90.730469 107.125 C 90.863281 107.234375 90.648438 107.542969 90.34375 108.582031 C 90.097656 109.429688 90.125 109.625 89.867188 109.859375 "/>
<path style="fill:none;stroke-width:0.3;stroke-linecap:butt;stroke-linejoin:miter;stroke:rgb(96.470588%,83.137256%,60.392159%);stroke-opacity:1;stroke-miterlimit:10;" d="M -0.000098877 0.0000216675 C -0.0549426 -0.0510135 -0.1692 -0.102049 -0.255275 -0.0472049 C -0.332208 0.00230682 -0.357345 0.115041 -0.341349 0.191975 C -0.327638 0.249104 -0.294122 0.275764 -0.0846497 0.406018 C 0.117968 0.531701 0.150721 0.547697 0.168241 0.533225 C 0.194139 0.511897 0.152245 0.451721 0.0928308 0.249104 C 0.0448425 0.0838107 0.0501746 0.0457248 -0.000098877 0.0000216675 Z M -0.000098877 0.0000216675 " transform="matrix(5.128205,0,0,-5.128205,89.867695,109.859486)"/>
<path style=" stroke:none;fill-rule:nonzero;fill:rgb(96.470588%,83.137256%,60.392159%);fill-opacity:1;" d="M 90.964844 112.199219 C 90.683594 112.457031 90.097656 112.71875 89.65625 112.4375 C 89.261719 112.1875 89.132812 111.609375 89.214844 111.210938 C 89.28125 110.921875 89.457031 110.78125 90.527344 110.117188 C 91.570312 109.46875 91.738281 109.386719 91.824219 109.464844 C 91.957031 109.570312 91.742188 109.878906 91.441406 110.921875 C 91.195312 111.765625 91.21875 111.960938 90.964844 112.199219 "/>
<path style="fill:none;stroke-width:0.3;stroke-linecap:butt;stroke-linejoin:miter;stroke:rgb(96.470588%,83.137256%,60.392159%);stroke-opacity:1;stroke-miterlimit:10;" d="M 0.000143661 -0.000347672 C -0.0547001 -0.0506211 -0.168958 -0.101656 -0.255032 -0.0468125 C -0.331966 0.00193748 -0.357102 0.114672 -0.341106 0.192367 C -0.328157 0.248734 -0.29388 0.276156 -0.0851688 0.405648 C 0.11821 0.532094 0.150964 0.54809 0.167722 0.532855 C 0.19362 0.512289 0.151726 0.452113 0.0930733 0.248734 C 0.0450851 0.0842031 0.0496554 0.0461172 0.000143661 -0.000347672 Z M 0.000143661 -0.000347672 " transform="matrix(5.128205,0,0,-5.128205,90.964107,112.197436)"/>
<path style="fill-rule:nonzero;fill:rgb(96.470588%,83.137256%,60.392159%);fill-opacity:1;stroke-width:0.3;stroke-linecap:butt;stroke-linejoin:miter;stroke:rgb(96.470588%,83.137256%,60.392159%);stroke-opacity:1;stroke-miterlimit:10;" d="M 0.000330048 0.0000279999 C 0.0582207 -0.108898 0.139725 -0.258195 0.243318 -0.431867 C 0.375857 -0.658097 0.55867 -0.965831 0.826795 -1.323839 C 0.998182 -1.553117 1.232029 -1.840285 1.536717 -2.151066 " transform="matrix(5.128205,0,0,-5.128205,83.158464,102.390769)"/>
<g clip-path="url(#clip1)" clip-rule="nonzero">
<path style="fill:none;stroke-width:1.5;stroke-linecap:butt;stroke-linejoin:miter;stroke:rgb(48.235294%,16.470589%,13.333334%);stroke-opacity:1;stroke-miterlimit:10;" d="M -0.000240784 -0.000317612 C -0.000240784 -3.179732 -2.334147 -5.758911 -5.21192 -5.758911 C -8.091217 -5.758911 -10.424362 -3.179732 -10.424362 -0.000317612 C -10.424362 3.179858 -8.091217 5.759038 -5.21192 5.759038 C -2.334147 5.759038 -0.000240784 3.179858 -0.000240784 -0.000317612 Z M -0.000240784 -0.000317612 " transform="matrix(5.128205,0,0,-5.128205,125.45436,99.537434)"/>
</g>
<path style="fill:none;stroke-width:0.5;stroke-linecap:butt;stroke-linejoin:miter;stroke:rgb(65.098041%,48.627451%,25.490198%);stroke-opacity:1;stroke-miterlimit:10;" d="M 0.000118103 0.000032959 C 0.000118103 -3.669166 -2.608007 -6.642916 -5.824745 -6.642916 C -9.042245 -6.642916 -11.648847 -3.669166 -11.648847 0.000032959 C -11.648847 3.669232 -9.042245 6.642982 -5.824745 6.642982 C -2.608007 6.642982 0.000118103 3.669232 0.000118103 0.000032959 Z M 0.000118103 0.000032959 " transform="matrix(5.128205,0,0,-5.128205,128.405644,100.105638)"/>
<path style="fill:none;stroke-width:0.5;stroke-linecap:butt;stroke-linejoin:miter;stroke:rgb(65.098041%,48.627451%,25.490198%);stroke-opacity:1;stroke-miterlimit:10;" d="M 0.000289536 0.000379639 C 0.000289536 -2.731144 -1.971039 -4.944698 -4.401683 -4.944698 C -6.833851 -4.944698 -8.805179 -2.731144 -8.805179 0.000379639 C -8.805179 2.731141 -6.833851 4.944696 -4.401683 4.944696 C -1.971039 4.944696 0.000289536 2.731141 0.000289536 0.000379639 Z M 0.000289536 0.000379639 " transform="matrix(5.128205,0,0,-5.128205,121.111796,99.458978)"/>
<path style="fill-rule:nonzero;fill:rgb(65.098041%,48.627451%,25.490198%);fill-opacity:1;stroke-width:0.2;stroke-linecap:butt;stroke-linejoin:miter;stroke:rgb(65.098041%,48.627451%,25.490198%);stroke-opacity:1;stroke-miterlimit:10;" d="M 0.000228043 -0.000261002 L -1.011334 -0.000261002 L -0.506315 -0.72237 Z M 0.000228043 -0.000261002 " transform="matrix(5.128205,0,0,-5.128205,102.424612,127.318974)"/>
<path style=" stroke:none;fill-rule:nonzero;fill:rgb(48.235294%,16.470589%,13.333334%);fill-opacity:1;" d="M 99.855469 128.558594 L 101.828125 128.558594 L 100.84375 127.121094 Z M 99.855469 128.558594 "/>
<path style=" stroke:none;fill-rule:nonzero;fill:rgb(48.235294%,16.470589%,13.333334%);fill-opacity:1;" d="M 97.890625 128.558594 L 99.867188 128.558594 L 98.882812 127.121094 Z M 97.890625 128.558594 "/>
<path style=" stroke:none;fill-rule:nonzero;fill:rgb(48.235294%,16.470589%,13.333334%);fill-opacity:1;" d="M 98.878906 130.152344 L 100.851562 130.152344 L 99.867188 128.710938 Z M 98.878906 130.152344 "/>
<path style=" stroke:none;fill-rule:nonzero;fill:rgb(96.470588%,83.137256%,60.392159%);fill-opacity:1;" d="M 112.746094 126.878906 L 92.269531 115.808594 L 113.839844 124.558594 Z M 112.746094 126.878906 "/>
<path style="fill:none;stroke-width:0.5;stroke-linecap:butt;stroke-linejoin:miter;stroke:rgb(96.470588%,83.137256%,60.392159%);stroke-opacity:1;stroke-miterlimit:10;" d="M 0.000248566 0.000155334 C 0.45271 -0.105724 0.800815 -0.0706845 1.043803 -0.015079 C 1.333256 0.0527139 1.493217 0.125839 1.720971 0.0778506 C 1.92435 0.0351944 2.085073 -0.178849 2.072124 -0.402032 C 2.071362 -0.434786 2.055366 -0.638927 1.865698 -0.779845 C 1.70726 -0.900196 1.491694 -0.926095 1.325639 -0.859825 C 1.142065 -0.7867 1.084174 -0.620645 1.065131 -0.568849 C 0.970678 -0.300724 1.126831 -0.0470712 1.084174 -0.0333603 C 1.027045 -0.0143173 0.85185 -0.501056 0.374252 -0.853731 C 0.234858 -0.955802 -0.0751616 -1.179747 -0.421744 -1.140899 C -0.653306 -1.114239 -0.798033 -0.970274 -0.884107 -0.882677 C -1.10729 -0.661017 -1.152232 -0.399747 -1.163658 -0.287013 C -1.20022 -0.210079 -1.367798 0.180683 -1.156802 0.652187 C -1.140806 0.687226 -0.96104 1.106171 -0.510103 1.327831 C -0.360044 1.401718 -0.16733 1.496933 0.0528072 1.43371 C 0.231049 1.384198 0.377299 1.247089 0.43976 1.084081 C 0.583725 0.713886 0.26228 0.306366 0.145737 0.159355 C -0.0271733 -0.0592587 -0.222935 -0.187989 -0.350142 -0.258829 " transform="matrix(5.128205,0,0,-5.128205,118.697944,129.96564)"/>
<path style="fill:none;stroke-width:0.5;stroke-linecap:butt;stroke-linejoin:miter;stroke:rgb(96.470588%,83.137256%,60.392159%);stroke-opacity:1;stroke-miterlimit:10;" d="M -0.000143585 -0.000228806 C -0.0801241 -0.0390765 -0.310163 -0.139623 -0.58362 -0.0786858 C -0.704733 -0.0520257 -0.797663 -0.000990524 -0.860124 0.040904 " transform="matrix(5.128205,0,0,-5.128205,116.90308,131.291795)"/>
<path style=" stroke:none;fill-rule:nonzero;fill:rgb(13.725491%,12.156863%,12.54902%);fill-opacity:1;" d="M 93.929688 87.992188 C 94.261719 88.234375 94.789062 88.558594 95.480469 88.808594 C 96.355469 89.132812 97.078125 89.179688 97.871094 89.21875 C 98.359375 89.246094 99.125 89.285156 100.070312 89.152344 C 100.882812 89.039062 102.167969 88.746094 103.625 87.925781 "/>
<path style=" stroke:none;fill-rule:nonzero;fill:rgb(32.549021%,29.803923%,12.941177%);fill-opacity:1;" d="M 93.929688 87.992188 C 93.929688 87.992188 94.683594 87.925781 95.667969 88.097656 C 95.503906 88.035156 96.070312 88.035156 96.261719 88 C 96.542969 87.972656 96.851562 87.933594 97.148438 87.953125 C 97.445312 87.972656 97.765625 87.953125 98.078125 88 C 97.785156 87.945312 98.539062 87.941406 98.71875 87.910156 L 99.667969 87.925781 C 99.769531 87.921875 100.109375 87.9375 100.003906 87.953125 L 100.40625 87.945312 C 100.933594 87.921875 101.476562 87.984375 101.933594 87.925781 C 102.871094 87.902344 103.625 87.925781 103.625 87.925781 C 103.625 87.925781 103.296875 88.617188 102.453125 89.273438 C 102.015625 89.5625 101.496094 89.953125 100.855469 90.164062 L 100.359375 90.316406 C 99.957031 90.398438 99.984375 90.382812 99.773438 90.398438 L 98.824219 90.46875 C 98.375 90.449219 98.492188 90.496094 97.578125 90.425781 C 97.273438 90.367188 96.980469 90.246094 96.691406 90.164062 C 96.40625 90.085938 96.144531 89.941406 95.886719 89.824219 C 95.558594 89.65625 95.5625 89.710938 95 89.367188 C 94.296875 88.648438 93.929688 87.992188 93.929688 87.992188 "/>
<path style=" stroke:none;fill-rule:nonzero;fill:rgb(96.470588%,83.137256%,60.392159%);fill-opacity:1;" d="M 98.90625 89.996094 C 98.671875 89.84375 98.296875 89.636719 97.792969 89.519531 C 97.609375 89.476562 96.390625 89.210938 95.292969 89.859375 C 94.6875 90.222656 94.835938 90.433594 94.25 90.746094 C 93.414062 91.191406 92.921875 90.867188 92.234375 91.222656 C 91.707031 91.5 91.558594 91.917969 91.121094 92.722656 C 89.808594 95.15625 88.722656 95.886719 89.035156 96.335938 C 89.300781 96.707031 90.292969 96.519531 90.910156 96.402344 C 91.65625 96.261719 92.300781 95.984375 92.300781 95.996094 C 92.308594 96.007812 90.738281 96.214844 90.21875 97.222656 C 90 97.640625 90.152344 97.847656 90.21875 99.195312 C 90.300781 100.835938 90.132812 101.699219 90.425781 101.785156 C 90.609375 101.84375 90.703125 101.527344 91.332031 101.175781 C 91.859375 100.871094 92.03125 100.964844 92.445312 100.699219 C 93 100.335938 93.308594 99.769531 93.277344 99.738281 C 93.230469 99.699219 91.972656 100.621094 91.746094 101.925781 C 91.671875 102.378906 91.726562 102.832031 91.746094 103.011719 C 91.792969 103.394531 91.917969 103.746094 92.164062 104.441406 C 92.320312 104.894531 92.363281 104.953125 92.445312 104.992188 C 92.851562 105.175781 93.605469 104.355469 93.835938 104.105469 C 94.625 103.242188 95.132812 102.222656 95.085938 102.195312 C 95.019531 102.160156 93.515625 103.800781 93.761719 105.328125 C 93.835938 105.789062 94.085938 106.351562 94.179688 106.554688 C 94.394531 107.035156 94.648438 107.605469 94.875 107.582031 C 95.046875 107.558594 95.074219 107.207031 95.363281 106.28125 C 95.597656 105.523438 95.804688 105.046875 95.851562 105.058594 C 95.921875 105.078125 95.265625 106.4375 95.851562 107.441406 C 95.925781 107.582031 96.179688 107.804688 96.679688 108.261719 C 97.507812 109.007812 97.769531 109.066406 98.070312 109.488281 C 98.253906 109.746094 98.476562 110.148438 98.558594 110.78125 "/>
<path style=" stroke:none;fill-rule:nonzero;fill:rgb(96.470588%,83.137256%,60.392159%);fill-opacity:1;" d="M 98.164062 89.996094 C 98.402344 89.84375 98.773438 89.636719 99.277344 89.519531 C 99.460938 89.476562 100.683594 89.210938 101.78125 89.859375 C 102.386719 90.222656 102.238281 90.433594 102.820312 90.746094 C 103.65625 91.191406 104.148438 90.867188 104.835938 91.222656 C 105.363281 91.5 105.511719 91.917969 105.949219 92.722656 C 107.261719 95.15625 108.347656 95.886719 108.035156 96.335938 C 107.769531 96.707031 106.78125 96.519531 106.160156 96.402344 C 105.414062 96.261719 104.769531 95.984375 104.769531 95.996094 C 104.765625 96.007812 106.332031 96.214844 106.851562 97.222656 C 107.074219 97.640625 106.917969 97.847656 106.851562 99.195312 C 106.769531 100.835938 106.9375 101.699219 106.648438 101.785156 C 106.460938 101.84375 106.371094 101.527344 105.738281 101.175781 C 105.210938 100.871094 105.042969 100.964844 104.625 100.699219 C 104.074219 100.335938 103.765625 99.769531 103.796875 99.738281 C 103.839844 99.699219 105.097656 100.621094 105.324219 101.925781 C 105.402344 102.378906 105.34375 102.832031 105.324219 103.011719 C 105.277344 103.394531 105.15625 103.746094 104.90625 104.441406 C 104.75 104.894531 104.707031 104.953125 104.625 104.992188 C 104.222656 105.175781 103.46875 104.355469 103.238281 104.105469 C 102.445312 103.242188 101.9375 102.222656 101.984375 102.195312 C 102.050781 102.160156 103.554688 103.800781 103.308594 105.328125 C 103.238281 105.789062 102.984375 106.351562 102.894531 106.554688 C 102.675781 107.035156 102.421875 107.605469 102.195312 107.582031 C 102.027344 107.558594 101.996094 107.207031 101.707031 106.28125 C 101.472656 105.523438 101.265625 105.046875 101.222656 105.058594 C 101.148438 105.078125 101.804688 106.4375 101.222656 107.441406 C 101.144531 107.582031 100.894531 107.804688 100.390625 108.261719 C 99.566406 109.007812 99.304688 109.066406 99 109.488281 C 98.816406 109.746094 98.59375 110.148438 98.511719 110.78125 "/>
<path style=" stroke:none;fill-rule:nonzero;fill:rgb(32.549021%,29.803923%,12.941177%);fill-opacity:1;" d="M 101.601562 81.335938 C 101.714844 80.96875 101.433594 80.816406 101.417969 80.261719 C 101.402344 79.71875 101.664062 79.207031 102.054688 78.902344 C 102.703125 78.402344 103.667969 78.542969 104.628906 78.6875 C 106.011719 78.894531 107.507812 79.441406 107.464844 79.75 C 107.453125 79.832031 107.34375 79.847656 106.535156 80.109375 C 105.492188 80.4375 105.304688 80.519531 105.308594 80.605469 C 105.3125 80.746094 105.816406 80.734375 106.585938 81.207031 C 106.632812 81.230469 106.683594 81.261719 106.746094 81.308594 C 106.925781 81.441406 107.066406 81.636719 107.699219 82.296875 C 108.289062 82.925781 108.457031 83.058594 108.421875 83.210938 C 108.394531 83.324219 108.269531 83.410156 107.53125 83.507812 C 106.753906 83.609375 106.464844 83.550781 105.867188 83.605469 C 105.0625 83.683594 104.570312 83.734375 104.394531 84.066406 C 104.097656 84.636719 104.929688 85.773438 104.777344 85.804688 C 104.75 85.8125 104.726562 85.796875 104.714844 85.789062 C 102.996094 84.996094 102.558594 84.6875 102.558594 84.6875 C 101.628906 84.023438 101.15625 83.679688 100.898438 83.28125 C 100.714844 82.992188 100.5 82.648438 100.574219 82.3125 C 100.699219 81.785156 101.425781 81.886719 101.601562 81.335938 "/>
<path style="fill:none;stroke-width:0.5;stroke-linecap:butt;stroke-linejoin:miter;stroke:rgb(32.549021%,29.803923%,12.941177%);stroke-opacity:1;stroke-miterlimit:10;" d="M 0.00000495911 -0.000306931 C 0.0220948 0.0712946 -0.0327489 0.101002 -0.0357958 0.209166 C -0.0388427 0.315045 0.0121925 0.41483 0.0883643 0.474244 C 0.21481 0.571744 0.402954 0.544322 0.590337 0.516138 C 0.859985 0.475767 1.151724 0.369127 1.143345 0.308951 C 1.14106 0.292955 1.119732 0.289908 0.962056 0.238873 C 0.758677 0.174888 0.722114 0.158892 0.722876 0.142134 C 0.723638 0.114713 0.821899 0.116998 0.971958 0.0248298 C 0.981099 0.0202595 0.991001 0.0141657 1.003189 0.0050251 C 1.038228 -0.0208733 1.065649 -0.0589593 1.189048 -0.18769 C 1.304067 -0.310326 1.336821 -0.336225 1.329966 -0.365932 C 1.324634 -0.388022 1.300259 -0.40478 1.156294 -0.423823 C 1.004712 -0.443627 0.948345 -0.432201 0.831802 -0.442866 C 0.674888 -0.4581 0.578911 -0.468002 0.544634 -0.532748 C 0.486743 -0.643959 0.648989 -0.865619 0.619282 -0.871713 C 0.61395 -0.873237 0.60938 -0.87019 0.607095 -0.868666 C 0.271939 -0.714037 0.186626 -0.653862 0.186626 -0.653862 C 0.00533699 -0.524369 -0.086831 -0.457338 -0.137104 -0.379643 C -0.172905 -0.323276 -0.2148 -0.256244 -0.200327 -0.190737 C -0.175952 -0.0879046 -0.0342724 -0.107709 0.00000495911 -0.000306931 Z M 0.00000495911 -0.000306931 " transform="matrix(5.128205,0,0,-5.128205,101.601537,81.334363)"/>
<path style=" stroke:none;fill-rule:nonzero;fill:rgb(32.549021%,29.803923%,12.941177%);fill-opacity:1;" d="M 93.628906 82.886719 C 93.847656 83.132812 94.078125 83.019531 94.488281 83.265625 C 94.886719 83.511719 95.152344 83.929688 95.214844 84.328125 C 95.308594 85 94.800781 85.578125 94.296875 86.148438 C 93.601562 86.945312 92.578125 87.675781 92.347656 87.539062 C 92.25 87.484375 92.328125 87.242188 92.476562 86.753906 C 92.621094 86.273438 92.71875 86.175781 92.804688 85.832031 C 92.953125 85.28125 92.914062 84.785156 92.835938 84.785156 C 92.769531 84.785156 92.753906 85.164062 92.410156 85.617188 C 92.300781 85.757812 92.066406 86.066406 91.652344 86.273438 C 91.410156 86.390625 91.339844 86.359375 90.394531 86.496094 C 89.699219 86.601562 89.527344 86.648438 89.429688 86.550781 C 89.359375 86.484375 89.347656 86.355469 89.585938 85.816406 C 89.855469 85.199219 89.996094 84.886719 90.207031 84.660156 C 90.867188 83.953125 91.875 83.910156 91.867188 83.722656 C 91.855469 83.589844 91.359375 83.652344 90.480469 83.46875 C 89.808594 83.320312 89.003906 83.046875 89.054688 82.902344 C 89.066406 82.882812 89.085938 82.867188 89.09375 82.863281 C 90.390625 82.09375 90.792969 81.949219 90.792969 81.949219 C 91.667969 81.640625 92.113281 81.488281 92.507812 81.503906 C 92.792969 81.519531 93.132812 81.535156 93.34375 81.742188 C 93.675781 82.074219 93.300781 82.511719 93.628906 82.886719 "/>
<path style="fill:none;stroke-width:0.3;stroke-linecap:butt;stroke-linejoin:miter;stroke:rgb(32.549021%,29.803923%,12.941177%);stroke-opacity:1;stroke-miterlimit:10;" d="M -0.000362701 0.00019104 C 0.0422935 -0.0477972 0.087235 -0.0257074 0.167215 -0.0736957 C 0.244911 -0.121684 0.296708 -0.203188 0.308895 -0.280883 C 0.327176 -0.411899 0.228153 -0.524633 0.129891 -0.635844 C -0.00569473 -0.791235 -0.205265 -0.933676 -0.250206 -0.907016 C -0.269249 -0.896352 -0.254015 -0.849125 -0.22507 -0.753911 C -0.196886 -0.660219 -0.177843 -0.641176 -0.161085 -0.574145 C -0.13214 -0.466743 -0.139757 -0.370004 -0.154992 -0.370004 C -0.167941 -0.370004 -0.170988 -0.443891 -0.238019 -0.53225 C -0.259347 -0.559672 -0.30505 -0.619848 -0.385792 -0.660219 C -0.433019 -0.683071 -0.44673 -0.676977 -0.631066 -0.703637 C -0.766652 -0.724203 -0.800167 -0.733344 -0.81921 -0.714301 C -0.832921 -0.701352 -0.835206 -0.676215 -0.788742 -0.571098 C -0.736183 -0.450746 -0.708761 -0.389809 -0.667628 -0.345629 C -0.538898 -0.207758 -0.342374 -0.199379 -0.343898 -0.162817 C -0.346183 -0.136918 -0.442921 -0.149106 -0.614308 -0.113305 C -0.745324 -0.0843597 -0.902238 -0.0310394 -0.892335 -0.00285583 C -0.89005 0.000952759 -0.886242 0.00399963 -0.884718 0.00476135 C -0.631828 0.15482 -0.553371 0.183004 -0.553371 0.183004 C -0.382746 0.243179 -0.29591 0.272886 -0.218976 0.269839 C -0.163371 0.266793 -0.097101 0.263746 -0.0559682 0.223375 C 0.00877792 0.158629 -0.0643471 0.073316 -0.000362701 0.00019104 Z M -0.000362701 0.00019104 " transform="matrix(5.128205,0,0,-5.128205,93.630766,82.887698)"/>
<path style="fill:none;stroke-width:0.3;stroke-linecap:butt;stroke-linejoin:miter;stroke:rgb(32.549021%,29.803923%,12.941177%);stroke-opacity:1;stroke-miterlimit:10;" d="M 0.000344696 -0.00020874 C 0.0887041 -0.0421033 0.209817 -0.106088 0.340071 -0.199017 C 0.407103 -0.246244 0.718645 -0.467904 0.88927 -0.770306 C 1.186341 -1.294369 0.963157 -1.890795 0.915931 -2.011908 " transform="matrix(5.128205,0,0,-5.128205,93.463076,79.018461)"/>
<path style="fill:none;stroke-width:0.3;stroke-linecap:butt;stroke-linejoin:miter;stroke:rgb(32.549021%,29.803923%,12.941177%);stroke-opacity:1;stroke-miterlimit:10;" d="M -0.000259018 0.000356598 C 0.0126902 0.0216847 0.126186 0.212876 0.366128 0.247915 C 0.644917 0.28981 0.829253 0.0841457 0.83687 0.075005 " transform="matrix(5.128205,0,0,-5.128205,93.731797,82.966672)"/>
<path style="fill:none;stroke-width:0.3;stroke-linecap:butt;stroke-linejoin:miter;stroke:rgb(32.549021%,29.803923%,12.941177%);stroke-opacity:1;stroke-miterlimit:10;" d="M 0.000228882 -0.000108414 C -0.108697 0.111103 -0.280845 0.127099 -0.392056 0.050165 C -0.477369 -0.00924904 -0.516978 -0.116651 -0.497173 -0.224054 " transform="matrix(5.128205,0,0,-5.128205,100.975389,82.202569)"/>
<path style=" stroke:none;fill-rule:nonzero;fill:rgb(96.470588%,83.137256%,60.392159%);fill-opacity:1;" d="M 82.949219 124.457031 L 104.519531 115.703125 L 84.042969 126.773438 Z M 82.949219 124.457031 "/>
<path style="fill:none;stroke-width:0.5;stroke-linecap:butt;stroke-linejoin:miter;stroke:rgb(96.470588%,83.137256%,60.392159%);stroke-opacity:1;stroke-miterlimit:10;" d="M -0.0000188446 -0.0002388 C -0.453242 -0.106118 -0.801347 -0.0710786 -1.044335 -0.0147115 C -1.333027 0.0530815 -1.492988 0.126207 -1.720742 0.0782182 C -1.92412 0.0348003 -2.084843 -0.179243 -2.071894 -0.401665 C -2.071132 -0.43518 -2.055136 -0.639321 -1.86623 -0.780239 C -1.707031 -0.899829 -1.492226 -0.925727 -1.326171 -0.860219 C -1.141835 -0.787094 -1.083945 -0.62104 -1.064902 -0.569243 C -0.97121 -0.301118 -1.127363 -0.0467036 -1.083945 -0.0329927 C -1.026816 -0.0139497 -0.85162 -0.500688 -0.374023 -0.854126 C -0.234628 -0.956196 0.0746296 -1.180141 0.421973 -1.141293 C 0.652774 -1.113872 0.798262 -0.969907 0.884337 -0.883071 C 1.106758 -0.660649 1.1517 -0.400141 1.163887 -0.286645 C 1.199688 -0.209711 1.368028 0.18105 1.157032 0.651792 C 1.141036 0.686832 0.96127 1.105777 0.510333 1.328199 C 0.360274 1.402085 0.166798 1.4973 -0.0533392 1.434839 C -0.23082 1.383804 -0.37707 1.246695 -0.440292 1.083687 C -0.584257 0.714253 -0.26205 0.305972 -0.146269 0.15896 C 0.0266413 -0.0588911 0.223165 -0.187622 0.350372 -0.259223 " transform="matrix(5.128205,0,0,-5.128205,78.093847,129.862057)"/>
<path style="fill:none;stroke-width:0.5;stroke-linecap:butt;stroke-linejoin:miter;stroke:rgb(96.470588%,83.137256%,60.392159%);stroke-opacity:1;stroke-miterlimit:10;" d="M 0.000371399 0.0000376892 C 0.0803519 -0.03881 0.309629 -0.140119 0.583848 -0.0791811 C 0.704961 -0.0517592 0.797891 -0.00072403 0.860352 0.0411705 " transform="matrix(5.128205,0,0,-5.128205,79.88872,131.187693)"/>
<path style=" stroke:none;fill-rule:nonzero;fill:rgb(32.549021%,29.803923%,12.941177%);fill-opacity:1;" d="M 98.589844 89.542969 L 98.480469 92.15625 "/>
<path style=" stroke:none;fill-rule:nonzero;fill:rgb(32.549021%,29.803923%,12.941177%);fill-opacity:1;" d="M 98.589844 89.542969 C 98.6875 89.546875 99.933594 90.25 99.816406 90.902344 C 99.882812 91.5625 98.585938 92.164062 98.480469 92.15625 C 98.382812 92.15625 97.132812 91.449219 97.257812 90.796875 C 97.195312 90.140625 98.492188 89.535156 98.589844 89.542969 "/>
<g clip-path="url(#clip2)" clip-rule="nonzero">
<path style="fill:none;stroke-width:1;stroke-linecap:butt;stroke-linejoin:miter;stroke:rgb(65.098041%,48.627451%,25.490198%);stroke-opacity:1;stroke-miterlimit:10;" d="M 0.000267029 0.000109329 C 1.753744 0.105988 3.591771 0.173781 5.506732 0.192824 C 7.30972 0.210344 9.044154 0.18216 10.703939 0.118176 " transform="matrix(5.128205,0,0,-5.128205,71.287693,114.797436)"/>
</g>
<path style=" stroke:none;fill-rule:nonzero;fill:rgb(96.470588%,83.137256%,60.392159%);fill-opacity:1;" d="M 120.796875 126.578125 C 120.796875 128.730469 119.058594 130.476562 116.914062 130.476562 C 114.769531 130.476562 113.03125 128.730469 113.03125 126.578125 C 113.03125 124.421875 114.769531 122.679688 116.914062 122.679688 C 119.058594 122.679688 120.796875 124.421875 120.796875 126.578125 "/>
<path style="fill:none;stroke-width:0.5;stroke-linecap:butt;stroke-linejoin:miter;stroke:rgb(96.470588%,83.137256%,60.392159%);stroke-opacity:1;stroke-miterlimit:10;" d="M 0.000190048 -0.000134354 C 0.000190048 -0.419841 -0.338775 -0.76033 -0.756958 -0.76033 C -1.175142 -0.76033 -1.514107 -0.419841 -1.514107 -0.000134354 C -1.514107 0.420334 -1.175142 0.760061 -0.756958 0.760061 C -0.338775 0.760061 0.000190048 0.420334 0.000190048 -0.000134354 Z M 0.000190048 -0.000134354 " transform="matrix(5.128205,0,0,-5.128205,120.7959,126.577436)"/>
<path style=" stroke:none;fill-rule:nonzero;fill:rgb(96.470588%,83.137256%,60.392159%);fill-opacity:1;" d="M 83.769531 126.847656 C 83.769531 129 82.03125 130.742188 79.890625 130.742188 C 77.746094 130.742188 76.007812 129 76.007812 126.847656 C 76.007812 124.691406 77.746094 122.949219 79.890625 122.949219 C 82.03125 122.949219 83.769531 124.691406 83.769531 126.847656 "/>
<path style="fill:none;stroke-width:0.5;stroke-linecap:butt;stroke-linejoin:miter;stroke:rgb(96.470588%,83.137256%,60.392159%);stroke-opacity:1;stroke-miterlimit:10;" d="M -0.000241852 -0.000193176 C -0.000241852 -0.4199 -0.339207 -0.759627 -0.756629 -0.759627 C -1.174812 -0.759627 -1.513777 -0.4199 -1.513777 -0.000193176 C -1.513777 0.420276 -1.174812 0.760002 -0.756629 0.760002 C -0.339207 0.760002 -0.000241852 0.420276 -0.000241852 -0.000193176 Z M -0.000241852 -0.000193176 " transform="matrix(5.128205,0,0,-5.128205,83.770772,126.846666)"/>
<path style=" stroke:none;fill-rule:nonzero;fill:rgb(96.470588%,83.137256%,60.392159%);fill-opacity:1;" d="M 71.996094 131.96875 C 71.996094 132.941406 71.121094 133.734375 70.039062 133.734375 C 68.957031 133.734375 68.078125 132.941406 68.078125 131.96875 C 68.078125 130.996094 68.957031 130.203125 70.039062 130.203125 C 71.121094 130.203125 71.996094 130.996094 71.996094 131.96875 "/>
<path style="fill:none;stroke-width:0.5;stroke-linecap:butt;stroke-linejoin:miter;stroke:rgb(96.470588%,83.137256%,60.392159%);stroke-opacity:1;stroke-miterlimit:10;" d="M -0.000161819 -0.00000617981 C -0.000161819 -0.189674 -0.170787 -0.344303 -0.381783 -0.344303 C -0.592779 -0.344303 -0.764166 -0.189674 -0.764166 -0.00000617981 C -0.764166 0.189662 -0.592779 0.344291 -0.381783 0.344291 C -0.170787 0.344291 -0.000161819 0.189662 -0.000161819 -0.00000617981 Z M -0.000161819 -0.00000617981 " transform="matrix(5.128205,0,0,-5.128205,71.996924,131.968718)"/>
<path style=" stroke:none;fill-rule:nonzero;fill:rgb(96.470588%,83.137256%,60.392159%);fill-opacity:1;" d="M 128.632812 131.691406 C 128.632812 132.988281 127.660156 134.039062 126.457031 134.039062 C 125.257812 134.039062 124.289062 132.988281 124.289062 131.691406 C 124.289062 130.394531 125.257812 129.34375 126.457031 129.34375 C 127.660156 129.34375 128.632812 130.394531 128.632812 131.691406 "/>
<path style="fill:none;stroke-width:0.5;stroke-linecap:butt;stroke-linejoin:miter;stroke:rgb(96.470588%,83.137256%,60.392159%);stroke-opacity:1;stroke-miterlimit:10;" d="M -0.000101471 -0.0000241852 C -0.000101471 -0.252915 -0.189769 -0.457817 -0.424379 -0.457817 C -0.658226 -0.457817 -0.847133 -0.252915 -0.847133 -0.0000241852 C -0.847133 0.252866 -0.658226 0.457769 -0.424379 0.457769 C -0.189769 0.457769 -0.000101471 0.252866 -0.000101471 -0.0000241852 Z M -0.000101471 -0.0000241852 " transform="matrix(5.128205,0,0,-5.128205,128.633333,131.691282)"/>
<path style="fill-rule:nonzero;fill:rgb(96.470588%,83.137256%,60.392159%);fill-opacity:1;stroke-width:0.04;stroke-linecap:butt;stroke-linejoin:miter;stroke:rgb(96.470588%,83.137256%,60.392159%);stroke-opacity:1;stroke-miterlimit:10;" d="M 0.000172806 -0.000329742 C -0.0181084 -0.00413834 -0.0478155 -0.013279 -0.0782842 -0.0368922 C -0.0919952 -0.048318 -0.113323 -0.0650758 -0.126273 -0.0940211 C -0.153694 -0.15572 -0.133128 -0.237986 -0.114085 -0.241033 C -0.101136 -0.243318 -0.0866631 -0.208279 -0.084378 -0.209802 C -0.0820928 -0.212088 -0.0980889 -0.237224 -0.0973272 -0.269216 C -0.0958038 -0.285974 -0.08971 -0.308826 -0.0798077 -0.310349 C -0.065335 -0.312634 -0.0478155 -0.272263 -0.0447686 -0.273025 C -0.0440069 -0.27531 -0.065335 -0.304256 -0.0577178 -0.330154 C -0.0539092 -0.343103 -0.0432452 -0.356052 -0.0333428 -0.355291 C -0.0272491 -0.353767 -0.0226788 -0.346912 -0.0142999 -0.333201 C -0.00363579 -0.317205 -0.00211235 -0.310349 0.000172806 -0.310349 C 0.00626656 -0.311111 -0.00515923 -0.356814 0.0146455 -0.388045 C 0.0237861 -0.400994 0.0352119 -0.407088 0.0420673 -0.410134 " transform="matrix(5.128205,0,0,-5.128205,99.256926,94.658465)"/>
<path style="fill-rule:nonzero;fill:rgb(96.470588%,83.137256%,60.392159%);fill-opacity:1;stroke-width:0.04;stroke-linecap:butt;stroke-linejoin:miter;stroke:rgb(96.470588%,83.137256%,60.392159%);stroke-opacity:1;stroke-miterlimit:10;" d="M 0.000335617 -0.000376358 C 0.0277575 0.00495567 0.0993591 0.0133346 0.161058 -0.033892 C 0.174769 -0.0437943 0.196097 -0.0613139 0.209047 -0.0910209 C 0.23723 -0.15272 0.215902 -0.234986 0.196859 -0.238033 C 0.184672 -0.240318 0.170961 -0.205279 0.167914 -0.206802 C 0.164867 -0.209087 0.181625 -0.234224 0.180101 -0.266216 C 0.17934 -0.282974 0.173246 -0.305826 0.163343 -0.307349 C 0.148871 -0.309634 0.131351 -0.269263 0.129066 -0.270025 C 0.126781 -0.27231 0.148109 -0.301255 0.141254 -0.327154 C 0.138207 -0.340103 0.126019 -0.353052 0.116879 -0.35229 C 0.110785 -0.350767 0.106215 -0.343912 0.0970739 -0.330201 C 0.0879333 -0.314204 0.0856481 -0.307349 0.083363 -0.307349 C 0.0772692 -0.308111 0.0879333 -0.353814 0.0681286 -0.385044 C 0.0597497 -0.397994 0.0483239 -0.404087 0.0407067 -0.407134 " transform="matrix(5.128205,0,0,-5.128205,99.259998,94.673851)"/>
</g>
</svg>
